<?xml version="1.0" encoding="UTF-8"?><svg id="Layer_1" xmlns="http://www.w3.org/2000/svg" viewBox="0 0 1024 1024"><defs><style>.cls-1{fill:#ffc629;}</style></defs><rect class="cls-1" x="0" width="1024" height="1024"/><path d="m322.62,385.37v200.59c0,11.07-6.23,17.64-16.25,17.64s-16.6-6.57-16.6-17.64v-86.12h-144.9v86.12c0,11.07-5.88,17.64-16.25,17.64s-16.6-6.57-16.6-17.64v-200.59c0-11.07,6.23-17.64,16.6-17.64s16.25,6.57,16.25,17.64v84.39h144.9v-84.39c0-11.07,6.23-17.64,16.6-17.64s16.25,6.57,16.25,17.64Z"/><path d="m616.59,474.6v111.36c0,11.07-5.88,17.64-16.25,17.64s-16.6-6.57-16.6-17.64v-54.98h-145.24v55.33c0,10.72-5.88,17.29-16.25,17.29s-15.91-6.57-15.91-17.29v-111.71c0-70.55,38.05-108.93,105.14-108.93s105.13,38.39,105.13,108.93Zm-32.86-1.38c0-51.18-25.59-77.47-72.62-77.47s-72.62,26.29-72.62,77.47v27.67h145.24v-27.67Z"/><path d="m659.61,771.36c-69.44,0-125.94-43.88-125.94-97.81,0-8.73,7.08-15.81,15.81-15.81s15.81,7.08,15.81,15.81c0,36.49,42.31,66.19,94.32,66.19s94.31-29.7,94.31-66.19c0-8.73,7.08-15.81,15.81-15.81s15.81,7.08,15.81,15.81c0,53.93-56.49,97.81-125.93,97.81Z"/><path d="m912,474.6c0-70.55-37.7-108.93-105.13-108.93s-105.14,38.39-105.14,108.93v111.71c0,10.72,5.88,17.29,15.91,17.29s16.25-6.57,16.25-17.29v-55.33h143.94c18.87,0,34.16-15.29,34.16-34.16v-16.04h0v-6.18Zm-45.65,26.29h-132.45v-27.67c0-51.18,25.59-77.47,72.62-77.47s72.61,26.28,72.62,77.45v14.9c0,7.07-5.73,12.79-12.79,12.79Z"/></svg>